<svg id="Layer_1" enable-background="new 0 0 510 510" height="512" viewBox="0 0 510 510" width="512" xmlns="http://www.w3.org/2000/svg"><g><path id="XMLID_986_" d="m135 120c-.131.015-134.875 14.986-135 15v375c.111-.099 134.899-119.911 135-120l15-135z" fill="#9dcfff"/><path id="XMLID_984_" d="m135 375c-7.501 7.501-127.499 127.499-135 135h255l15-67.5-15-82.5c-.102.013-119.898 14.987-120 15z" fill="#72bbff"/><path id="XMLID_982_" d="m255 150 15-82.5-15-67.5c-14.518 0-105.387 0-120 0v135z" fill="#9dcfff"/><path id="XMLID_675_" d="m0 135h135c0-16.333 0-118.559 0-135-7.501 7.501-127.499 127.499-135 135z" fill="#d0e8ff"/><path id="XMLID_667_" d="m510 0h-255v135l120 15z" fill="#72bbff"/><path id="XMLID_527_" d="m375 375h-120v135h120l15-90z" fill="#8095ff"/><path id="XMLID_464_" d="m375 390 135-15v-375l-135 135z" fill="#8095ff"/><path id="XMLID_412_" d="m135 135v240h120l15-120-15-120c-14.518 0-105.387 0-120 0z" fill="#d0e8ff"/><path id="XMLID_140_" d="m255 135v240h120v-240z" fill="#9dcfff"/><path id="XMLID_138_" d="m375 510 135-135h-135z" fill="#66f"/></g></svg>